PathFileType	4	(X/Y/Z)	s08c0203.trc
DataRate	CameraRate	NumFrames	NumMarkers	Units	OrigDataRate	OrigDataStartFrame	OrigNumFrames
200	200	4	50	mm	200	750	2000
Frame#	Time	racr			lacr			c7			jug			rlel			rdr			llel			ldr			s2			lic			ric			lasi			rasi			rpsi			lpsi			rgt			lgt			rth1			rth2			rth3			rth4			rlfc			rmfc			rsh1			rsh2			rsh3			rsh4			rlmal			rmmal			rcal			rtoe			rmt5			lth1			lth2			lth4			lth3			llfc			lmfc			llmal			lmmal			lcal			lmt5			lsh1			lsh2			lsh3			lsh4			ltoe			SBIKE			LBIKE			RBIKE			
		X1	Y1	Z1	X2	Y2	Z2	X3	Y3	Z3	X4	Y4	Z4	X5	Y5	Z5	X6	Y6	Z6	X7	Y7	Z7	X8	Y8	Z8	X9	Y9	Z9	X10	Y10	Z10	X11	Y11	Z11	X12	Y12	Z12	X13	Y13	Z13	X14	Y14	Z14	X15	Y15	Z15	X16	Y16	Z16	X17	Y17	Z17	X18	Y18	Z18	X19	Y19	Z19	X20	Y20	Z20	X21	Y21	Z21	X22	Y22	Z22	X23	Y23	Z23	X24	Y24	Z24	X25	Y25	Z25	X26	Y26	Z26	X27	Y27	Z27	X28	Y28	Z28	X29	Y29	Z29	X30	Y30	Z30	X31	Y31	Z31	X32	Y32	Z32	X33	Y33	Z33	X34	Y34	Z34	X35	Y35	Z35	X36	Y36	Z36	X37	Y37	Z37	X38	Y38	Z38	X39	Y39	Z39	X40	Y40	Z40	X41	Y41	Z41	X42	Y42	Z42	X43	Y43	Z43	X44	Y44	Z44	X45	Y45	Z45	X46	Y46	Z46	X47	Y47	Z47	X48	Y48	Z48	X49	Y49	Z49	X50	Y50	Z50	
750	3.7500	529.837164	1381.451499	-102.543370	492.814284	1308.992328	-433.198613	478.916124	1439.391943	-278.366784	443.542585	1284.728220	-245.866204	574.487735	1156.663401	42.715723	745.718821	929.036813	-58.115112	505.933538	1043.100176	-529.315552	731.305244	917.771540	-410.505436	-49.013800	1192.678696	-189.013528	94.320920	1206.268115	-345.110737	121.858681	1211.652280	-26.679134	130.558862	1167.740572	-302.726465	144.702668	1142.472661	-60.621633	-11.975069	1230.551821	-135.049660	-25.763242	1241.097311	-227.375285	39.254938	1070.824209	-14.455673	80.485128	1118.839735	-383.660255	127.657675	918.503903	-8.644728	185.333789	851.014638	-15.015071	201.798021	767.250176	-31.818571	218.470764	867.617856	-20.682616	257.068338	663.403469	-50.900549	233.236729	649.751424	-156.982680	226.387578	533.540740	-19.768741	254.215482	450.466649	-38.451369	235.842190	365.858406	-47.251987	281.954658	456.480809	-68.106133	236.043803	245.071004	-57.558033	247.270135	269.277900	-146.926617	162.289295	213.064122	-104.898578	462.121184	214.682580	-105.466841	373.582165	177.618690	-39.879375	191.647702	1049.053110	-380.289619	276.568590	1030.562479	-369.105657	289.961971	1058.595398	-349.241288	343.183959	971.445079	-370.399478	422.290591	876.373824	-350.145696	413.431337	837.517867	-243.825722	117.600837	595.242299	-389.659831	150.172965	587.872444	-305.675552	49.873373	609.405947	-350.747553	181.648967	442.811825	-418.262094	339.886636	788.729701	-380.183114	289.705921	718.882611	-373.871265	211.672719	679.129838	-381.638725	307.054007	698.859814	-345.682171	264.198327	415.034625	-348.784047	-214.358138	917.099632	-237.511107	-9.905672	81.762719	-426.568314	-9.699045	79.774799	-28.384490	
751	3.7550	530.563125	1382.167336	-107.911345	491.287121	1309.055758	-437.246813	478.924527	1439.412561	-281.828967	443.561400	1284.842172	-248.872018	577.601477	1159.209656	40.193588	745.924592	929.074929	-58.215753	503.897102	1041.334414	-529.063801	731.176281	918.505729	-410.550555	-48.043653	1193.867806	-185.356007	93.076272	1208.382549	-342.926280	126.037362	1211.197930	-25.739919	129.996269	1169.498947	-300.942285	147.011796	1141.597132	-59.716641	-14.784483	1232.942045	-130.474344	-25.310488	1242.396950	-223.308306	40.466347	1071.213200	-12.626586	80.518476	1123.457167	-381.840395	124.182646	916.658365	-7.460990	180.209368	847.843616	-12.897056	194.338928	763.553760	-29.223556	213.576737	863.618797	-18.680617	247.042482	658.675137	-49.423785	222.349615	645.328730	-156.180248	216.345362	528.820355	-18.349992	244.058889	445.747524	-37.020456	226.724824	361.296445	-46.179279	272.768392	452.164983	-66.248913	227.954237	240.406299	-56.950348	239.743282	265.054216	-145.870047	154.423467	209.549893	-104.342033	454.278277	206.932741	-105.456495	365.239491	171.058277	-39.713814	191.816369	1055.073541	-378.672999	277.007549	1037.845902	-367.840676	289.872794	1065.710069	-347.475257	344.418504	979.948368	-370.549493	425.301838	884.340259	-350.540506	417.483261	845.143121	-244.503184	122.890021	601.219176	-389.054539	154.817119	594.569033	-305.527119	54.488643	613.850437	-350.400523	190.143460	450.372498	-417.851355	343.458098	796.753976	-379.819811	293.667113	726.546252	-373.736234	216.081750	686.135928	-381.215241	311.756851	706.696427	-345.375875	273.251678	424.522549	-348.503312	-217.857387	917.664952	-240.873394	-9.943208	81.999626	-426.494856	-9.743150	80.085851	-28.186730	
752	3.7600	531.104509	1382.710482	-113.334398	489.620526	1309.225551	-440.335338	478.916666	1439.241456	-285.031443	443.393606	1284.802390	-251.630051	580.577747	1161.453138	37.845708	746.385189	929.064649	-58.204090	502.088751	1039.798188	-528.687379	730.807515	919.196358	-410.444233	-46.952265	1195.158931	-182.046086	91.869095	1210.512556	-340.942111	129.933732	1210.832600	-25.095288	129.493539	1171.123550	-299.335064	149.291379	1141.013159	-58.969380	-12.413585	1233.534162	-126.661350	-24.688627	1243.850317	-219.833004	41.699958	1071.790824	-11.002242	80.589681	1128.082967	-380.131650	120.647331	916.078063	-4.982308	175.225029	845.273771	-10.565083	187.135450	760.720397	-26.395480	208.901994	860.094409	-16.775547	237.164759	654.591289	-47.803470	212.173708	641.434929	-154.949889	206.201810	524.872459	-16.801164	234.496071	441.984228	-35.546162	217.535108	357.418202	-45.091337	263.324447	448.566455	-64.669822	219.697636	236.549905	-56.263519	232.157971	261.293968	-144.851215	146.268712	206.841487	-103.786571	446.100856	199.403437	-105.485293	356.537599	165.137044	-39.557129	191.657708	1061.092005	-377.058208	277.155485	1044.931992	-366.718122	289.731408	1072.992738	-346.078753	345.350597	988.172895	-370.470124	427.865681	892.437537	-351.287735	420.851709	853.105524	-244.085427	128.608089	606.356430	-388.743027	161.001641	600.048473	-305.503630	59.568814	617.820104	-350.646514	198.924260	457.314985	-417.797585	347.108340	804.446436	-379.892385	297.989682	733.621920	-373.887398	220.760388	692.612309	-381.170227	316.463950	713.757181	-345.902457	282.498317	433.322604	-348.360808	-218.209643	917.784079	-240.248527	-9.976037	82.143765	-426.453269	-9.746019	80.121641	-28.139007	
753	3.7650	531.482157	1383.084163	-118.761205	487.918762	1309.523846	-443.458520	478.878325	1438.826874	-287.675597	443.376837	1284.448160	-253.969746	583.496589	1163.389673	35.818367	747.147606	929.564825	-58.712127	500.408353	1038.510711	-528.389178	730.374617	919.779225	-410.453973	-45.770991	1196.657826	-179.287236	90.700171	1212.646417	-339.158171	133.428737	1210.686630	-24.674409	129.052475	1172.678934	-297.788119	151.616350	1140.416873	-58.458902	-9.768449	1234.438506	-123.791542	-24.373926	1245.656570	-216.658234	42.853794	1072.509516	-9.383409	81.377110	1133.098746	-379.769704	117.640864	914.982317	-4.383410	170.448858	843.290980	-8.141496	180.334031	758.476608	-23.712237	204.737639	857.176194	-14.627762	227.615511	651.356638	-46.449907	201.758529	638.715578	-153.576444	196.605122	521.650737	-15.060985	225.443123	438.971023	-33.915467	208.384043	354.432072	-44.026588	253.365186	445.838072	-63.236532	211.406070	233.384457	-55.631017	223.943831	258.468112	-143.917610	137.831855	205.155066	-103.080464	437.485447	192.353225	-105.522050	347.559894	159.740842	-39.388294	191.217244	1066.988308	-375.230672	277.017572	1051.953810	-365.812216	289.529912	1080.010604	-344.178946	346.126022	995.884890	-370.012743	430.192542	900.472652	-352.262473	424.345142	860.570892	-244.938844	134.812266	610.619413	-388.745137	167.026066	605.040242	-305.815790	64.883334	620.483271	-350.621728	208.024061	463.620425	-417.877203	350.802654	811.764661	-380.393597	302.664689	740.266175	-374.294015	225.692882	698.458875	-381.497463	321.411783	720.323667	-346.653515	291.852671	441.440706	-348.234182	-212.125277	917.034529	-231.765472	-9.997483	82.129854	-426.503012	-9.742858	80.108290	-28.103644	
